3.0Hz3min_grf.mot
version=1
nRows=10
nColumns 19
inDegrees=yes
endheader
time	1_ground_force_vx	1_ground_force_vy	1_ground_force_vz	1_ground_force_px	1_ground_force_py	1_ground_force_pz	1_ground_torque_x	1_ground_torque_y	1_ground_torque_z	2_ground_force_vx	2_ground_force_vy	2_ground_force_vz	2_ground_force_px	2_ground_force_py	2_ground_force_pz	2_ground_torque_x	2_ground_torque_y	2_ground_torque_z
            1.253500	            8.484013	         1131.396467	         -132.374512	           -0.228702	            0.005783	           -0.302544	            0.006945	            0.926211	           -0.108368	            4.379679	          992.942026	          110.818453	           -0.245324	            0.005540	           -0.681454	           -0.008291	           -1.879736	           -0.209790
            1.254000	            9.490268	         1137.708141	         -132.808512	           -0.228995	            0.005783	           -0.302511	            0.008365	            1.002864	           -0.117068	            4.829130	          998.282140	          111.353525	           -0.245853	            0.005538	           -0.681385	           -0.009292	           -1.920939	           -0.214271
            1.254500	           10.817406	         1144.740376	         -133.194381	           -0.229382	            0.005783	           -0.302494	            0.010997	            1.163722	           -0.135403	            5.605078	         1003.992846	          111.608188	           -0.246121	            0.005537	           -0.681430	           -0.011367	           -2.036068	           -0.226338
            1.255000	           12.098558	         1150.691903	         -133.722314	           -0.229610	            0.005783	           -0.302463	            0.012698	            1.207692	           -0.140346	            6.054467	         1009.333461	          112.002468	           -0.246254	            0.005536	           -0.681324	           -0.012198	           -2.033474	           -0.225648
            1.255500	           13.471473	         1158.084739	         -134.106751	           -0.230105	            0.005783	           -0.302481	            0.013765	            1.183319	           -0.137029	            6.596912	         1014.858450	          112.444301	           -0.246472	            0.005536	           -0.681359	           -0.013412	           -2.063329	           -0.228613
            1.256000	           14.294144	         1164.937095	         -134.583845	           -0.230385	            0.005782	           -0.302461	            0.014435	            1.176408	           -0.135909	            7.145298	         1018.726446	          112.786350	           -0.246743	            0.005534	           -0.681072	           -0.015003	           -2.139029	           -0.236819
            1.256500	           15.300205	         1171.068743	         -135.110323	           -0.230796	            0.005783	           -0.302550	            0.017472	            1.337262	           -0.154285	            7.967411	         1024.621446	          112.994729	           -0.246851	            0.005533	           -0.681091	           -0.017524	           -2.253623	           -0.248528
            1.257000	           16.260518	         1179.182488	         -135.444776	           -0.231208	            0.005782	           -0.302424	            0.020721	            1.502650	           -0.172599	            8.228571	         1030.147048	          113.014322	           -0.247010	            0.005532	           -0.681016	           -0.018113	           -2.267556	           -0.248767
            1.257500	           17.358753	         1185.132949	         -135.788847	           -0.231534	            0.005782	           -0.302418	            0.023300	            1.590770	           -0.182266	            9.005828	         1035.489517	          113.220750	           -0.247596	            0.005530	           -0.681026	           -0.020702	           -2.380361	           -0.260269
            1.258000	           18.594074	         1191.625037	         -136.268510	           -0.231871	            0.005782	           -0.302411	            0.025889	            1.659127	           -0.189730	            9.689905	         1040.648740	          113.098072	           -0.247703	            0.005530	           -0.680935	           -0.022119	           -2.375515	           -0.258172
